<?xml version="1.0" encoding="UTF-8" standalone="no"?>
<svg width="512px" height="512px" viewBox="0 0 512 512" version="1.1" xmlns="http://www.w3.org/2000/svg" xmlns:xlink="http://www.w3.org/1999/xlink">
    <!-- Generator: Sketch 3.6.1 (26313) - http://www.bohemiancoding.com/sketch -->
    <title>Assets/App Icon/iTunesArtwork</title>
    <desc>Created with Sketch.</desc>
    <defs>
        <linearGradient x1="50%" y1="0%" x2="50%" y2="100%" id="linearGradient-1">
            <stop stop-color="#F5515F" offset="0%"></stop>
            <stop stop-color="#000000" offset="100%"></stop>
        </linearGradient>
    </defs>
    <g id="Page-1" stroke="none" stroke-width="1" fill="none" fill-rule="evenodd">
        <g id="Assets/App-Icon/iTunesArtwork">
            <rect id="Background" fill="url(#linearGradient-1)" x="0" y="0" width="512" height="512"></rect>
            <g id="Grid" opacity="0.5" stroke="#FF0000" stroke-width="2">
                <path d="M0,0 L512,512 M512,0 L0,512" id="Diagonal" stroke-linecap="square"></path>
                <path d="M33,0 L33,512 M159,0 L159,512 M256,0 L256,512 M353,0 L353,512 M479,0 L479,512" id="Vertical" stroke-linecap="square"></path>
                <path d="M0,479 L512,479 M0,353 L512,353 M0,256 L512,256 M0,159 L512,159 M0,33 L512,33" id="Horizontal" stroke-linecap="square"></path>
                <path d="M256,479 C379.159499,479 479,379.159499 479,256 C479,132.840501 379.159499,33 256,33 C132.840501,33 33,132.840501 33,256 C33,379.159499 132.840501,479 256,479 Z M256,393 C331.663011,393 393,331.663011 393,256 C393,180.336989 331.663011,119 256,119 C180.336989,119 119,180.336989 119,256 C119,331.663011 180.336989,393 256,393 Z M256,353 C309.571621,353 353,309.571621 353,256 C353,202.428379 309.571621,159 256,159 C202.428379,159 159,202.428379 159,256 C159,309.571621 202.428379,353 256,353 Z" id="Rings"></path>
            </g>
            <path d="M358.879217,242.870287 L314.879217,242.870287 L314.879217,214.227886 C314.879217,210.641971 311.969068,207.734833 308.379217,207.734833 C304.79667,207.734833 301.879217,210.641872 301.879217,214.227886 L301.879217,242.870287 L257.879217,242.870287 L257.879217,214.227886 C257.879217,210.641971 254.969068,207.734833 251.379217,207.734833 C247.79667,207.734833 244.879217,210.641872 244.879217,214.227886 L244.879217,242.870287 L198.879217,242.870287 L198.879217,214.227886 C198.879217,210.641971 195.969068,207.734833 192.379217,207.734833 C188.79667,207.734833 185.879217,210.641872 185.879217,214.227886 L185.879217,242.870287 L141.879217,242.870287 L141.879217,214.227886 C141.879217,210.641971 138.969068,207.734833 135.379217,207.734833 C131.79667,207.734833 128.879217,210.641872 128.879217,214.227886 L128.879217,242.870287 L106.383298,242.870287 C102.780032,242.870287 99.8792167,245.780436 99.8792167,249.370287 C99.8792167,252.952833 102.791193,255.870287 106.383298,255.870287 L128.879217,255.870287 L128.879217,299.9654 L106.383298,299.9654 C102.780032,299.9654 99.8792167,302.875549 99.8792167,306.4654 C99.8792167,310.047946 102.791193,312.9654 106.383298,312.9654 L128.879217,312.9654 L128.879217,352.66858 L106.383298,352.66858 C102.780032,352.66858 99.8792167,355.578729 99.8792167,359.16858 C99.8792167,362.751127 102.791193,365.66858 106.383298,365.66858 L128.879217,365.66858 L128.879217,387.511785 C128.879217,391.0977 131.789366,394.004838 135.379217,394.004838 C138.961763,394.004838 141.879217,391.097799 141.879217,387.511785 L141.879217,365.66858 L185.879217,365.66858 L185.879217,387.511785 C185.879217,391.0977 188.789366,394.004838 192.379217,394.004838 C195.961763,394.004838 198.879217,391.097799 198.879217,387.511785 L198.879217,365.66858 L244.879217,365.66858 L244.879217,387.511785 C244.879217,391.0977 247.789366,394.004838 251.379217,394.004838 C254.961763,394.004838 257.879217,391.097799 257.879217,387.511785 L257.879217,365.66858 L301.879217,365.66858 L301.879217,387.511785 C301.879217,391.0977 304.789366,394.004838 308.379217,394.004838 C311.961763,394.004838 314.879217,391.097799 314.879217,387.511785 L314.879217,365.66858 L358.879217,365.66858 L358.879217,387.511785 C358.879217,391.0977 361.789366,394.004838 365.379217,394.004838 C368.961763,394.004838 371.879217,391.097799 371.879217,387.511785 L371.879217,365.66858 L401.375135,365.66858 C404.978402,365.66858 407.879217,362.758431 407.879217,359.16858 C407.879217,355.586034 404.96724,352.66858 401.375135,352.66858 L371.879217,352.66858 L371.879217,312.9654 L401.375135,312.9654 C404.978402,312.9654 407.879217,310.05525 407.879217,306.4654 C407.879217,302.882853 404.96724,299.9654 401.375135,299.9654 L371.879217,299.9654 L371.879217,255.870287 L401.375135,255.870287 C404.978402,255.870287 407.879217,252.960138 407.879217,249.370287 C407.879217,245.787741 404.96724,242.870287 401.375135,242.870287 L371.879217,242.870287 L371.879217,214.227886 C371.879217,210.641971 368.969068,207.734833 365.379217,207.734833 C361.79667,207.734833 358.879217,210.641872 358.879217,214.227886 L358.879217,242.870287 Z M358.879217,255.870287 L314.879217,255.870287 L314.879217,299.9654 L358.879217,299.9654 L358.879217,255.870287 Z M358.879217,312.9654 L314.879217,312.9654 L314.879217,352.66858 L358.879217,352.66858 L358.879217,312.9654 Z M301.879217,352.66858 L257.879217,352.66858 L257.879217,312.9654 L301.879217,312.9654 L301.879217,352.66858 Z M301.879217,299.9654 L257.879217,299.9654 L257.879217,255.870287 L301.879217,255.870287 L301.879217,299.9654 Z M244.879217,255.870287 L198.879217,255.870287 L198.879217,299.9654 L244.879217,299.9654 L244.879217,255.870287 Z M244.879217,312.9654 L198.879217,312.9654 L198.879217,352.66858 L244.879217,352.66858 L244.879217,312.9654 Z M185.879217,352.66858 L141.879217,352.66858 L141.879217,312.9654 L185.879217,312.9654 L185.879217,352.66858 Z M185.879217,299.9654 L141.879217,299.9654 L141.879217,255.870287 L185.879217,255.870287 L185.879217,299.9654 Z M161.879217,167 L104.697259,167 C81.4989022,167 64.7354867,185.694802 67.2495929,208.756008 L86.1630529,382.243992 C88.6777019,405.310178 109.523292,424 132.724195,424 L376.126519,424 C399.326116,424 420.410282,405.337249 423.216407,382.315579 L444.380405,208.684421 C447.18639,185.663891 430.657365,167 407.461484,167 L342.879217,167 L342.879217,121.99342 C342.879217,102.671492 327.206554,87 307.873346,87 L196.885088,87 C177.546407,87 161.879217,102.667088 161.879217,121.99342 L161.879217,167 Z M184.879217,128.995833 C184.879217,117.952439 193.841493,109 204.87157,109 L299.886863,109 C310.928335,109 319.879217,117.951233 319.879217,128.995833 L319.879217,162.004167 C319.879217,173.047561 310.91694,182 299.886863,182 L204.87157,182 C193.830098,182 184.879217,173.048767 184.879217,162.004167 L184.879217,128.995833 Z" id="Combined-Shape" fill="#F8E81C"></path>
        </g>
    </g>
</svg>